<!DOCTYPE svg PUBLIC "-//W3C//DTD SVG 1.1//EN" "http://www.w3.org/Graphics/SVG/1.1/DTD/svg11.dtd">
<!-- Uploaded to: SVG Repo, www.svgrepo.com, Transformed by: SVG Repo Mixer Tools -->
<svg width="800px" height="800px" viewBox="0 0 64 64" xmlns="http://www.w3.org/2000/svg" xmlns:xlink="http://www.w3.org/1999/xlink" aria-hidden="true" role="img" class="iconify iconify--emojione-monotone" preserveAspectRatio="xMidYMid meet" fill="#000000">
<g id="SVGRepo_bgCarrier" stroke-width="0"/>
<g id="SVGRepo_tracerCarrier" stroke-linecap="round" stroke-linejoin="round"/>
<g id="SVGRepo_iconCarrier">
<path d="M19.465 32.089h25.07a1.67 1.67 0 0 0 1.668-1.668V21.81a1.67 1.67 0 0 0-1.668-1.668h-25.07a1.67 1.67 0 0 0-1.668 1.668v8.611c0 .92.748 1.668 1.668 1.668" fill="#000000"/>
<path d="M32 2C15.432 2 2 15.432 2 32s13.432 30 30 30s30-13.432 30-30S48.568 2 32 2M17.276 55.802a28.246 28.246 0 0 1-4.785-3.744l2.651-3.472a5.166 5.166 0 0 0 2.795.827h3.527l-4.188 6.389m.662-8.389a3.19 3.19 0 0 1-3.197-3.182V20.683c0-6.288 8.63-9.432 17.26-9.432c8.629 0 17.258 3.144 17.258 9.432v23.549a3.19 3.19 0 0 1-3.195 3.182H17.938zm28.787 8.389l-4.188-6.389h3.526c1.03 0 1.985-.309 2.793-.826l2.653 3.472a28.182 28.182 0 0 1-4.784 3.743" fill="#000000"/>
<path d="M23.436 38.582h-4.713c-1.08 0-1.959.873-1.959 1.949s.879 1.949 1.959 1.949h4.713c1.082 0 1.959-.873 1.959-1.949s-.877-1.949-1.959-1.949m-2.356 3.62a1.671 1.671 0 1 1-.002-3.342a1.671 1.671 0 0 1 .002 3.342" fill="#000000"/>
<path d="M47.234 40.531a1.954 1.954 0 0 0-1.957-1.949h-4.715c-1.082 0-1.957.873-1.957 1.949s.875 1.949 1.957 1.949h4.715c1.08 0 1.957-.873 1.957-1.949m-4.314 1.671a1.671 1.671 0 1 1-.002-3.342a1.671 1.671 0 0 1 .002 3.342" fill="#000000"/>
</g>
</svg>